<svg xmlns="http://www.w3.org/2000/svg" version="1.1" xmlns:xlink="http://www.w3.org/1999/xlink"
    xmlns:svgjs="http://svgjs.dev/svgjs" width="2000" height="4635" viewBox="0 0 2000 4635">
    <g transform="matrix(1,0,0,1,-1.189194223620575,-7.475806451613153)">
        <svg viewBox="0 0 107 248" data-background-color="#ececea"
            preserveAspectRatio="xMidYMid meet" height="4635" width="2000"
            xmlns="http://www.w3.org/2000/svg" xmlns:xlink="http://www.w3.org/1999/xlink">
            <g id="tight-bounds" transform="matrix(1,0,0,1,0.0636218909637023,0.4000000000000057)">
                <svg viewBox="0 0 106.87275621807264 247.2" height="247.2"
                    width="106.87275621807264">
                    <g>
                        <svg viewBox="0 0 286.0576768763999 661.6602792535457" height="247.2"
                            width="106.87275621807264">
                            <g transform="matrix(1,0,0,1,6.083128438199992,344.0550117155039)">
                                <svg viewBox="0 0 273.8914199999999 317.60526753804174"
                                    height="317.60526753804174" width="273.8914199999999">
                                    <g id="textblocktransform">
                                        <svg viewBox="0 0 273.8914199999999 317.60526753804174"
                                            height="317.60526753804174" width="273.8914199999999"
                                            id="textblock">
                                            <g>
                                                <svg
                                                    viewBox="0 0 273.8914199999999 245.67230399999997"
                                                    height="245.67230399999997"
                                                    width="273.8914199999999">
                                                    <g transform="matrix(1,0,0,1,0,0)">
                                                        <svg width="273.8914199999999"
                                                            viewBox="1.2 -42.95 57.75 51.800000000000004"
                                                            height="245.67230399999997"
                                                            data-palette-color="#009b7e">
                                                            <path
                                                                d="M17.1 8.85L1.2 8.85 1.2 3.15 17.1 3.15 17.1 8.85ZM28.7 0L20.15 0 20.15-42.95 28.65-42.95 28.65-25.75 32.65-42.95 41.3-42.95 36.5-23.3 42.3 0 33.4 0 28.7-20.8 28.7 0ZM58.95 8.85L43.05 8.85 43.05 3.15 58.95 3.15 58.95 8.85Z"
                                                                opacity="1"
                                                                transform="matrix(1,0,0,1,0,0)"
                                                                fill="#009b7e"
                                                                class="wordmark-text-0"
                                                                data-fill-palette-color="primary"
                                                                id="text-0"></path>
                                                        </svg>
                                                    </g>
                                                </svg>
                                            </g>
                                            <g
                                                transform="matrix(1,0,0,1,50.66991269999998,303.669638839104)">
                                                <svg
                                                    viewBox="0 0 172.55159459999996 13.93562869893778"
                                                    height="13.93562869893778"
                                                    width="172.55159459999996">
                                                    <g transform="matrix(1,0,0,1,0,0)">
                                                        <svg width="172.55159459999996"
                                                            viewBox="1.45 -36.5 593.04 47.9"
                                                            height="13.93562869893778"
                                                            data-palette-color="#000000">
                                                            <path
                                                                d="M5.2 8.1L5.2-18.7Q5.2-20.7 4.38-21.43 3.55-22.15 1.45-22.25L1.45-22.25 1.6-23.85Q2.7-24.05 8.2-25.65L8.2-25.65 9.15-25.15 9.6-21.9Q11.8-25.6 16.45-25.6L16.45-25.6Q26.05-25.6 26.05-13.15L26.05-13.15Q26.05-6.55 23-3.08 19.95 0.4 14.2 0.4L14.2 0.4Q12.1 0.4 9.8-0.45L9.8-0.45 9.8 8.1Q11.15 9.1 13.55 9.55L13.55 9.55 13.35 11.4 1.45 11.4 1.65 9.45Q3.8 9.1 5.2 8.1L5.2 8.1ZM9.8-13.1L9.8-13.1 9.8-2.95Q11.6-1.9 14.6-1.9 17.6-1.9 19.45-4.85 21.3-7.8 21.3-13.08 21.3-18.35 20-20.83 18.7-23.3 15.95-23.3L15.95-23.3Q9.8-23.3 9.8-13.1ZM37.45 0.4L37.45 0.4Q34.25 0.4 32.47-1.23 30.7-2.85 30.7-6.08 30.7-9.3 33.17-11.3 35.65-13.3 40.4-13.65L40.4-13.65 44.65-13.95 44.65-18.35Q44.65-21.05 43.57-22.28 42.5-23.5 40.15-23.5L40.15-23.5Q35.9-23.5 35.9-21.05L35.9-21.05Q35.9-19.7 37.55-19.05L37.55-19.05Q37.55-16.5 34.45-16.5L34.45-16.5Q33.05-16.5 32.2-17.35 31.35-18.2 31.35-19.6L31.35-19.6Q31.35-22.4 33.72-24.03 36.1-25.65 40.27-25.65 44.45-25.65 46.85-23.73 49.25-21.8 49.25-18.35L49.25-18.35 49.25-3.3Q50.5-2.35 53-1.85L53-1.85 52.8 0 45.35 0 44.8-2.4Q41.85 0.4 37.45 0.4ZM35.45-6.25L35.45-6.25Q35.45-1.85 38.85-1.85L38.85-1.85Q41.55-1.85 44.65-4.95L44.65-4.95 44.65-11.75 40.6-11.4Q38.2-11.2 36.82-9.8 35.45-8.4 35.45-6.25ZM60.7-2.6Q62.55-2.05 64.7-2.05 66.84-2.05 68.2-3.28 69.55-4.5 69.55-6.15 69.55-7.8 68.57-8.83 67.59-9.85 66.15-10.33 64.7-10.8 62.97-11.45 61.25-12.1 59.8-12.8 58.35-13.5 57.37-15.08 56.4-16.65 56.4-18.9L56.4-18.9Q56.4-21.95 58.82-23.78 61.25-25.6 64.97-25.6 68.7-25.6 71.09-24.08 73.5-22.55 73.5-20.35L73.5-20.35Q73.5-17.55 71-17.55L71-17.55Q69.09-17.55 68.15-19L68.15-19Q69-19.7 69-20.88 69-22.05 67.82-22.75 66.65-23.45 64.77-23.45 62.9-23.45 61.67-22.48 60.45-21.5 60.45-19.75 60.45-18 61.82-16.85 63.2-15.7 65.15-15.08 67.09-14.45 69.07-13.73 71.05-13 72.42-11.4 73.8-9.8 73.8-7.35L73.8-7.35Q73.8-3.7 71.3-1.7 68.8 0.3 64.25 0.3L64.25 0.3Q62.4 0.3 59.97-0.33 57.55-0.95 56.35-1.75L56.35-1.75 56.35-8.4 59.25-8.75Q59.6-4.65 60.7-2.6L60.7-2.6ZM83.39-2.6Q85.24-2.05 87.39-2.05 89.54-2.05 90.89-3.28 92.24-4.5 92.24-6.15 92.24-7.8 91.27-8.83 90.29-9.85 88.84-10.33 87.39-10.8 85.67-11.45 83.94-12.1 82.49-12.8 81.04-13.5 80.07-15.08 79.09-16.65 79.09-18.9L79.09-18.9Q79.09-21.95 81.52-23.78 83.94-25.6 87.67-25.6 91.39-25.6 93.79-24.08 96.19-22.55 96.19-20.35L96.19-20.35Q96.19-17.55 93.69-17.55L93.69-17.55Q91.79-17.55 90.84-19L90.84-19Q91.69-19.7 91.69-20.88 91.69-22.05 90.52-22.75 89.34-23.45 87.47-23.45 85.59-23.45 84.37-22.48 83.14-21.5 83.14-19.75 83.14-18 84.52-16.85 85.89-15.7 87.84-15.08 89.79-14.45 91.77-13.73 93.74-13 95.12-11.4 96.49-9.8 96.49-7.35L96.49-7.35Q96.49-3.7 93.99-1.7 91.49 0.3 86.94 0.3L86.94 0.3Q85.09 0.3 82.67-0.33 80.24-0.95 79.04-1.75L79.04-1.75 79.04-8.4 81.94-8.75Q82.29-4.65 83.39-2.6L83.39-2.6ZM104.49-3.3L104.49-18.8Q104.49-20.8 103.67-21.53 102.84-22.25 100.74-22.35L100.74-22.35 100.89-23.95Q102.94-24.3 108.04-25.8L108.04-25.8 109.09-25.25 109.09-3.3Q110.44-2.3 112.84-1.85L112.84-1.85 112.64 0 100.74 0 100.94-1.95Q103.09-2.3 104.49-3.3L104.49-3.3ZM109.34-32.77Q109.34-29.65 106.52-29.65 103.69-29.65 103.69-32.77 103.69-35.9 106.52-35.9 109.34-35.9 109.34-32.77ZM120.69-12.65Q120.69-7.05 122.19-4.58 123.69-2.1 127.06-2.1 130.44-2.1 131.94-4.58 133.44-7.05 133.44-12.63 133.44-18.2 131.94-20.68 130.44-23.15 127.04-23.15 123.64-23.15 122.16-20.7 120.69-18.25 120.69-12.65ZM135.36-2.93Q132.54 0.4 127.04 0.4 121.54 0.4 118.71-2.93 115.89-6.25 115.89-12.63 115.89-19 118.71-22.33 121.54-25.65 127.04-25.65 132.54-25.65 135.36-22.33 138.19-19 138.19-12.63 138.19-6.25 135.36-2.93ZM145.64-3.3L145.64-18.7Q145.64-20.7 144.81-21.43 143.99-22.15 141.89-22.25L141.89-22.25 142.04-23.85Q143.14-24.05 148.64-25.65L148.64-25.65 149.59-25.15 150.09-21.8Q152.89-25.65 156.99-25.65 161.09-25.65 163.29-23.68 165.49-21.7 165.49-18.2L165.49-18.2 165.49-3.3Q166.74-2.35 169.24-1.85L169.24-1.85 169.04 0 157.19 0 157.34-1.85Q159.34-2.15 160.89-3.3L160.89-3.3 160.89-17.7Q160.89-23.05 156.29-23.05L156.29-23.05Q154.44-23.05 152.74-21.8 151.04-20.55 150.24-18.55L150.24-18.55 150.24-3.3Q151.59-2.3 153.99-1.85L153.99-1.85 153.79 0 141.89 0 142.09-1.95Q144.24-2.3 145.64-3.3L145.64-3.3ZM179.28 0.4L179.28 0.4Q176.08 0.4 174.31-1.23 172.53-2.85 172.53-6.08 172.53-9.3 175.01-11.3 177.48-13.3 182.23-13.65L182.23-13.65 186.48-13.95 186.48-18.35Q186.48-21.05 185.41-22.28 184.33-23.5 181.98-23.5L181.98-23.5Q177.73-23.5 177.73-21.05L177.73-21.05Q177.73-19.7 179.38-19.05L179.38-19.05Q179.38-16.5 176.28-16.5L176.28-16.5Q174.88-16.5 174.03-17.35 173.18-18.2 173.18-19.6L173.18-19.6Q173.18-22.4 175.56-24.03 177.93-25.65 182.11-25.65 186.28-25.65 188.68-23.73 191.08-21.8 191.08-18.35L191.08-18.35 191.08-3.3Q192.33-2.35 194.83-1.85L194.83-1.85 194.63 0 187.18 0 186.63-2.4Q183.68 0.4 179.28 0.4ZM177.28-6.25L177.28-6.25Q177.28-1.85 180.68-1.85L180.68-1.85Q183.38-1.85 186.48-4.95L186.48-4.95 186.48-11.75 182.43-11.4Q180.03-11.2 178.66-9.8 177.28-8.4 177.28-6.25ZM200.73-6.25L200.73-6.25 200.73-22.5 196.33-22.5 196.33-24Q201.63-25.8 203.23-30.55L203.23-30.55 205.38-30.55 205.38-25.3 211.48-25.3 211.48-22.5 205.33-22.5 205.33-5.85Q205.33-3.85 205.78-3 206.23-2.15 207.83-2.15 209.43-2.15 211.18-3.2L211.18-3.2 212.23-1.6Q209.73 0.4 206.43 0.4 203.13 0.4 201.93-1.13 200.73-2.65 200.73-6.25ZM234.73-13.05L220.23-13.05 220.23-12.25Q220.23-6.05 221.88-3.9L221.88-3.9Q223.43-1.9 226.95-1.9 230.48-1.9 232.98-4.85L232.98-4.85 234.68-3.15Q231.63 0.4 226.48 0.4L226.48 0.4Q220.43 0.4 217.85-2.95 215.28-6.3 215.28-12.55 215.28-18.8 218.08-22.23 220.88-25.65 226.18-25.65 231.48-25.65 233.58-22.85 235.68-20.05 235.83-14.5L235.83-14.5 234.73-13.05ZM226.08-23.45L226.08-23.45Q220.38-23.45 220.23-15.05L220.23-15.05 230.98-15.45Q230.98-19.65 229.93-21.55 228.88-23.45 226.08-23.45ZM255.72-3.3L255.72-18.7Q255.72-20.7 254.9-21.43 254.07-22.15 251.97-22.25L251.97-22.25 252.12-23.85Q253.22-24.05 258.72-25.65L258.72-25.65 259.67-25.15 260.22-21.4Q263.07-25.65 266.67-25.65L266.67-25.65Q268.62-25.65 270.05-24.5 271.47-23.35 271.47-21.63 271.47-19.9 270.7-18.9 269.92-17.9 268.8-17.9 267.67-17.9 266.87-18.35 266.07-18.8 265.87-19.55L265.87-19.55Q266.42-20.1 266.42-21.05L266.42-21.05Q266.42-22.7 264.87-22.7 263.32-22.7 261.82-20.4 260.32-18.1 260.32-15.55L260.32-15.55 260.32-3.3Q261.82-2.3 264.57-1.85L264.57-1.85 264.37 0 251.97 0 252.17-1.95Q254.32-2.3 255.72-3.3L255.72-3.3ZM293.67-13.05L279.17-13.05 279.17-12.25Q279.17-6.05 280.82-3.9L280.82-3.9Q282.37-1.9 285.9-1.9 289.42-1.9 291.92-4.85L291.92-4.85 293.62-3.15Q290.57 0.4 285.42 0.4L285.42 0.4Q279.37 0.4 276.8-2.95 274.22-6.3 274.22-12.55 274.22-18.8 277.02-22.23 279.82-25.65 285.12-25.65 290.42-25.65 292.52-22.85 294.62-20.05 294.77-14.5L294.77-14.5 293.67-13.05ZM285.02-23.45L285.02-23.45Q279.32-23.45 279.17-15.05L279.17-15.05 289.92-15.45Q289.92-19.65 288.87-21.55 287.82-23.45 285.02-23.45ZM305.77 0.4L305.77 0.4Q302.57 0.4 300.79-1.23 299.02-2.85 299.02-6.08 299.02-9.3 301.49-11.3 303.97-13.3 308.72-13.65L308.72-13.65 312.97-13.95 312.97-18.35Q312.97-21.05 311.89-22.28 310.82-23.5 308.47-23.5L308.47-23.5Q304.22-23.5 304.22-21.05L304.22-21.05Q304.22-19.7 305.87-19.05L305.87-19.05Q305.87-16.5 302.77-16.5L302.77-16.5Q301.37-16.5 300.52-17.35 299.67-18.2 299.67-19.6L299.67-19.6Q299.67-22.4 302.04-24.03 304.42-25.65 308.59-25.65 312.77-25.65 315.17-23.73 317.57-21.8 317.57-18.35L317.57-18.35 317.57-3.3Q318.82-2.35 321.32-1.85L321.32-1.85 321.12 0 313.67 0 313.12-2.4Q310.17 0.4 305.77 0.4ZM303.77-6.25L303.77-6.25Q303.77-1.85 307.17-1.85L307.17-1.85Q309.87-1.85 312.97-4.95L312.97-4.95 312.97-11.75 308.92-11.4Q306.52-11.2 305.14-9.8 303.77-8.4 303.77-6.25ZM335.17 0.25L335.17 0.25Q329.27 0.25 326.57-2.83 323.87-5.9 323.87-12.55L323.87-12.55Q323.87-25.5 335.42-25.5L335.42-25.5Q339.12-25.5 341.42-23.93 343.72-22.35 343.72-19.8L343.72-19.8Q343.72-18.5 342.87-17.55 342.02-16.6 340.94-16.6 339.87-16.6 339.07-17.15 338.27-17.7 338.07-18.55L338.07-18.55Q338.77-19.65 338.77-20.75 338.77-21.85 337.84-22.7 336.92-23.55 335.42-23.55L335.42-23.55Q332.02-23.55 330.44-20.93 328.87-18.3 328.87-12.58 328.87-6.85 330.34-4.38 331.82-1.9 335.17-1.9L335.17-1.9Q339.62-1.9 341.37-6.65L341.37-6.65 343.57-5.9Q342.67-3.05 340.42-1.4 338.17 0.25 335.17 0.25ZM350.66-6.25L350.66-6.25 350.66-22.5 346.26-22.5 346.26-24Q351.56-25.8 353.16-30.55L353.16-30.55 355.31-30.55 355.31-25.3 361.41-25.3 361.41-22.5 355.26-22.5 355.26-5.85Q355.26-3.85 355.71-3 356.16-2.15 357.76-2.15 359.36-2.15 361.11-3.2L361.11-3.2 362.16-1.6Q359.66 0.4 356.36 0.4 353.06 0.4 351.86-1.13 350.66-2.65 350.66-6.25ZM387.41 0.35L387.41 0.35Q377.81 0.35 377.81-12.1L377.81-12.1Q377.81-18.7 380.86-22.18 383.91-25.65 389.66-25.65L389.66-25.65Q391.76-25.65 394.06-24.75L394.06-24.75 394.06-29.5Q394.06-31.5 393.23-32.23 392.41-32.95 390.31-33.05L390.31-33.05 390.46-34.65Q392.51-35 397.61-36.5L397.61-36.5 398.66-35.95 398.66-3.3Q400.01-2.3 402.41-1.85L402.41-1.85 402.21 0 394.46 0 394.06-3.1Q391.86 0.35 387.41 0.35ZM394.06-12.65L394.06-12.65 394.06-22.25Q392.16-23.35 389.21-23.35 386.26-23.35 384.41-20.4 382.56-17.45 382.56-12.18 382.56-6.9 383.86-4.42 385.16-1.95 387.91-1.95L387.91-1.95Q394.06-1.95 394.06-12.65ZM425.06-13.05L410.56-13.05 410.56-12.25Q410.56-6.05 412.21-3.9L412.21-3.9Q413.76-1.9 417.28-1.9 420.81-1.9 423.31-4.85L423.31-4.85 425.01-3.15Q421.96 0.4 416.81 0.4L416.81 0.4Q410.76 0.4 408.18-2.95 405.61-6.3 405.61-12.55 405.61-18.8 408.41-22.23 411.21-25.65 416.51-25.65 421.81-25.65 423.91-22.85 426.01-20.05 426.16-14.5L426.16-14.5 425.06-13.05ZM416.41-23.45L416.41-23.45Q410.71-23.45 410.56-15.05L410.56-15.05 421.31-15.45Q421.31-19.65 420.26-21.55 419.21-23.45 416.41-23.45ZM443.05 0L439.45 0 431.6-21.45Q431-23.1 427.75-23.7L427.75-23.7 427.9-25.3 439.9-25.3 439.75-23.7Q437.5-23.4 436.4-22.5L436.4-22.5 442.1-5.2 447.8-22.5Q446.65-23.35 444.6-23.7L444.6-23.7 444.75-25.3 455-25.3 454.85-23.7Q451.55-23.1 451.2-22.1L451.2-22.1 443.05 0ZM476.5-13.05L462-13.05 462-12.25Q462-6.05 463.65-3.9L463.65-3.9Q465.2-1.9 468.73-1.9 472.25-1.9 474.75-4.85L474.75-4.85 476.45-3.15Q473.4 0.4 468.25 0.4L468.25 0.4Q462.2 0.4 459.63-2.95 457.05-6.3 457.05-12.55 457.05-18.8 459.85-22.23 462.65-25.65 467.95-25.65 473.25-25.65 475.35-22.85 477.45-20.05 477.6-14.5L477.6-14.5 476.5-13.05ZM467.85-23.45L467.85-23.45Q462.15-23.45 462-15.05L462-15.05 472.75-15.45Q472.75-19.65 471.7-21.55 470.65-23.45 467.85-23.45ZM484.65-3.3L484.65-29.5Q484.65-31.5 483.82-32.23 483-32.95 480.9-33.05L480.9-33.05 481.05-34.65Q483.1-35 488.2-36.5L488.2-36.5 489.25-35.95 489.25-3.3Q490.6-2.3 493-1.85L493-1.85 492.8 0 480.9 0 481.1-1.95Q483.25-2.3 484.65-3.3L484.65-3.3ZM501.2-12.65Q501.2-7.05 502.7-4.58 504.2-2.1 507.57-2.1 510.95-2.1 512.45-4.58 513.95-7.05 513.95-12.63 513.95-18.2 512.45-20.68 510.95-23.15 507.55-23.15 504.15-23.15 502.67-20.7 501.2-18.25 501.2-12.65ZM515.87-2.93Q513.05 0.4 507.55 0.4 502.05 0.4 499.22-2.93 496.4-6.25 496.4-12.63 496.4-19 499.22-22.33 502.05-25.65 507.55-25.65 513.05-25.65 515.87-22.33 518.7-19 518.7-12.63 518.7-6.25 515.87-2.93ZM525.94 8.1L525.94-18.7Q525.94-20.7 525.12-21.43 524.29-22.15 522.19-22.25L522.19-22.25 522.34-23.85Q523.44-24.05 528.94-25.65L528.94-25.65 529.89-25.15 530.34-21.9Q532.54-25.6 537.19-25.6L537.19-25.6Q546.79-25.6 546.79-13.15L546.79-13.15Q546.79-6.55 543.74-3.08 540.69 0.4 534.94 0.4L534.94 0.4Q532.84 0.4 530.54-0.45L530.54-0.45 530.54 8.1Q531.89 9.1 534.29 9.55L534.29 9.55 534.09 11.4 522.19 11.4 522.39 9.45Q524.54 9.1 525.94 8.1L525.94 8.1ZM530.54-13.1L530.54-13.1 530.54-2.95Q532.34-1.9 535.34-1.9 538.34-1.9 540.19-4.85 542.04-7.8 542.04-13.08 542.04-18.35 540.74-20.83 539.44-23.3 536.69-23.3L536.69-23.3Q530.54-23.3 530.54-13.1ZM570.39-13.05L555.89-13.05 555.89-12.25Q555.89-6.05 557.54-3.9L557.54-3.9Q559.09-1.9 562.62-1.9 566.14-1.9 568.64-4.85L568.64-4.85 570.34-3.15Q567.29 0.4 562.14 0.4L562.14 0.4Q556.09 0.4 553.51-2.95 550.94-6.3 550.94-12.55 550.94-18.8 553.74-22.23 556.54-25.65 561.84-25.65 567.14-25.65 569.24-22.85 571.34-20.05 571.49-14.5L571.49-14.5 570.39-13.05ZM561.74-23.45L561.74-23.45Q556.04-23.45 555.89-15.05L555.89-15.05 566.64-15.45Q566.64-19.65 565.59-21.55 564.54-23.45 561.74-23.45ZM578.74-3.3L578.74-18.7Q578.74-20.7 577.91-21.43 577.09-22.15 574.99-22.25L574.99-22.25 575.14-23.85Q576.24-24.05 581.74-25.65L581.74-25.65 582.69-25.15 583.24-21.4Q586.09-25.65 589.69-25.65L589.69-25.65Q591.64-25.65 593.06-24.5 594.49-23.35 594.49-21.63 594.49-19.9 593.71-18.9 592.94-17.9 591.81-17.9 590.69-17.9 589.89-18.35 589.09-18.8 588.89-19.55L588.89-19.55Q589.44-20.1 589.44-21.05L589.44-21.05Q589.44-22.7 587.89-22.7 586.34-22.7 584.84-20.4 583.34-18.1 583.34-15.55L583.34-15.55 583.34-3.3Q584.84-2.3 587.59-1.85L587.59-1.85 587.39 0 574.99 0 575.19-1.95Q577.34-2.3 578.74-3.3L578.74-3.3Z"
                                                                opacity="1"
                                                                transform="matrix(1,0,0,1,0,0)"
                                                                fill="#000000" class="slogan-text-1"
                                                                data-fill-palette-color="secondary"
                                                                id="text-1"></path>
                                                        </svg>
                                                    </g>
                                                </svg>
                                            </g>
                                        </svg>
                                    </g>
                                </svg>
                            </g>
                            <g>
                                <svg viewBox="0 0 286.0576768763999 286.0576768763999"
                                    height="286.0576768763999" width="286.0576768763999">
                                    <g>
                                        <svg xmlns="http://www.w3.org/2000/svg"
                                            xmlns:xlink="http://www.w3.org/1999/xlink" version="1.1"
                                            x="0" y="0" viewBox="7.261 6.964 75.477 75.477"
                                            enable-background="new 0 0 90 90" xml:space="preserve"
                                            height="286.0576768763999" width="286.0576768763999"
                                            class="icon-icon-0" data-fill-palette-color="accent"
                                            id="icon-0"><g fill="#ffbf5e" data-fill-palette-color="accent"><polygon points="43.583,37.298 32.386,9.106 29.752,10.152 41.15,38.849 43.583,41.282  " fill="#ffbf5e" data-fill-palette-color="accent"></polygon><polygon points="46.418,52.112 57.613,80.299 60.247,79.252 48.85,50.556 46.418,48.125  " fill="#ffbf5e" data-fill-palette-color="accent"></polygon><polygon points="37.596,46.119 9.403,57.317 10.45,59.951 39.146,48.554 41.58,46.119  " fill="#ffbf5e" data-fill-palette-color="accent"></polygon><polygon points="52.409,43.286 80.598,32.09 79.551,29.455 50.855,40.853 48.422,43.286  " fill="#ffbf5e" data-fill-palette-color="accent"></polygon><polygon points="38.762,40.468 10.91,28.452 9.788,31.053 38.139,43.286 41.579,43.286  " fill="#ffbf5e" data-fill-palette-color="accent"></polygon><polygon points="51.239,48.938 79.089,60.954 80.212,58.352 51.861,46.12 48.421,46.12  " fill="#ffbf5e" data-fill-palette-color="accent"></polygon><polygon points="49.236,38.463 61.252,10.613 58.649,9.49 46.418,37.841 46.418,41.281  " fill="#ffbf5e" data-fill-palette-color="accent"></polygon><polygon points="40.765,50.943 28.75,78.793 31.352,79.916 43.583,51.565 43.583,48.125  " fill="#ffbf5e" data-fill-palette-color="accent"></polygon><polygon points="48.85,50.556 70.683,72.39 72.687,70.386 51.239,48.938 47.579,47.359  " fill="#ffbf5e" data-fill-palette-color="accent"></polygon><polygon points="41.15,38.849 19.316,17.015 17.313,19.019 38.762,40.468 42.42,42.046  " fill="#ffbf5e" data-fill-palette-color="accent"></polygon><polygon points="43.583,42.548 42.42,42.046 42.913,43.286 43.583,43.286  " fill="#ffbf5e" data-fill-palette-color="accent"></polygon><polygon points="46.418,46.857 47.579,47.359 47.087,46.119 46.418,46.119  " fill="#ffbf5e" data-fill-palette-color="accent"></polygon><polygon points="50.855,40.853 72.688,19.02 70.684,17.016 49.236,38.463 47.657,42.123  " fill="#ffbf5e" data-fill-palette-color="accent"></polygon><polygon points="39.146,48.554 17.313,70.387 19.317,72.391 40.765,50.943 42.344,47.283  " fill="#ffbf5e" data-fill-palette-color="accent"></polygon><polygon points="47.155,43.286 47.657,42.123 46.418,42.615 46.418,43.286  " fill="#ffbf5e" data-fill-palette-color="accent"></polygon><polygon points="42.846,46.119 42.344,47.283 43.583,46.791 43.583,46.119  " fill="#ffbf5e" data-fill-palette-color="accent"></polygon><polygon points="82.738,43.286 52.409,43.286 48.704,44.757 51.861,46.12 82.738,46.12  " fill="#ffbf5e" data-fill-palette-color="accent"></polygon><polygon points="38.139,43.286 7.261,43.286 7.261,46.119 37.596,46.119 41.298,44.649  " fill="#ffbf5e" data-fill-palette-color="accent"></polygon><polygon points="42.475,44.182 41.298,44.649 42.522,45.177 42.997,44.703  " fill="#ffbf5e" data-fill-palette-color="accent"></polygon><polygon points="47.005,44.704 47.526,45.225 48.704,44.757 47.479,44.229  " fill="#ffbf5e" data-fill-palette-color="accent"></polygon><polygon points="42.913,43.286 41.579,43.286 42.475,44.182 43.16,43.909  " fill="#ffbf5e" data-fill-palette-color="accent"></polygon><polygon points="47.087,46.119 48.421,46.12 47.526,45.225 46.84,45.498  " fill="#ffbf5e" data-fill-palette-color="accent"></polygon><polygon points="43.583,43.741 43.16,43.909 43.339,44.36 43.583,44.116  " fill="#ffbf5e" data-fill-palette-color="accent"></polygon><polygon points="46.418,45.666 46.84,45.498 46.661,45.047 46.418,45.29  " fill="#ffbf5e" data-fill-palette-color="accent"></polygon><polygon points="42.522,45.177 41.58,46.119 42.846,46.119 43.138,45.443  " fill="#ffbf5e" data-fill-palette-color="accent"></polygon><polygon points="47.479,44.229 48.422,43.286 47.155,43.286 46.863,43.963  " fill="#ffbf5e" data-fill-palette-color="accent"></polygon><polygon points="43.318,45.025 43.138,45.443 43.583,45.635 43.583,45.29  " fill="#ffbf5e" data-fill-palette-color="accent"></polygon><polygon points="46.683,44.382 46.863,43.963 46.418,43.771 46.418,44.117  " fill="#ffbf5e" data-fill-palette-color="accent"></polygon><polygon points="46.534,44.727 46.661,45.047 47.005,44.704 46.683,44.382  " fill="#ffbf5e" data-fill-palette-color="accent"></polygon><polygon points="43.339,44.36 42.997,44.703 43.318,45.025 43.467,44.681  " fill="#ffbf5e" data-fill-palette-color="accent"></polygon><polygon points="46.418,44.996 46.534,44.727 46.418,44.435  " fill="#ffbf5e" data-fill-palette-color="accent"></polygon><polygon points="43.467,44.681 43.583,44.976 43.583,44.41  " fill="#ffbf5e" data-fill-palette-color="accent"></polygon><polygon points="46.418,37.841 46.418,6.964 43.583,6.964 43.583,37.298 45.054,41.001  " fill="#ffbf5e" data-fill-palette-color="accent"></polygon><polygon points="43.583,51.565 43.583,82.441 46.418,82.441 46.418,52.112 44.946,48.407  " fill="#ffbf5e" data-fill-palette-color="accent"></polygon><polygon points="45.521,42.178 45.054,41.001 44.526,42.225 45,42.699  " fill="#ffbf5e" data-fill-palette-color="accent"></polygon><polygon points="44.479,47.229 44.946,48.407 45.475,47.182 45.001,46.707  " fill="#ffbf5e" data-fill-palette-color="accent"></polygon><polygon points="44.526,42.225 43.583,41.282 43.583,42.548 44.261,42.841  " fill="#ffbf5e" data-fill-palette-color="accent"></polygon><polygon points="45.475,47.182 46.418,48.125 46.418,46.857 45.741,46.565  " fill="#ffbf5e" data-fill-palette-color="accent"></polygon><polygon points="45.323,46.386 45.741,46.565 45.933,46.119 45.589,46.119  " fill="#ffbf5e" data-fill-palette-color="accent"></polygon><polygon points="44.679,43.021 44.261,42.841 44.069,43.286 44.414,43.286  " fill="#ffbf5e" data-fill-palette-color="accent"></polygon><polygon points="43.583,46.791 43.583,48.125 44.479,47.229 44.207,46.544  " fill="#ffbf5e" data-fill-palette-color="accent"></polygon><polygon points="46.418,42.615 46.418,41.281 45.521,42.178 45.794,42.863  " fill="#ffbf5e" data-fill-palette-color="accent"></polygon><polygon points="44.038,46.119 44.207,46.544 44.658,46.364 44.413,46.119  " fill="#ffbf5e" data-fill-palette-color="accent"></polygon><polygon points="45.962,43.286 45.794,42.863 45.343,43.042 45.587,43.286  " fill="#ffbf5e" data-fill-palette-color="accent"></polygon><polygon points="44.658,46.364 45.001,46.707 45.323,46.386 44.979,46.237  " fill="#ffbf5e" data-fill-palette-color="accent"></polygon><polygon points="45.343,43.042 45,42.699 44.679,43.021 45.023,43.169  " fill="#ffbf5e" data-fill-palette-color="accent"></polygon><polygon points="44.979,46.237 45.274,46.119 44.707,46.119  " fill="#ffbf5e" data-fill-palette-color="accent"></polygon><polygon points="45.023,43.169 44.729,43.286 45.293,43.286  " fill="#ffbf5e" data-fill-palette-color="accent"></polygon><polygon points="44.069,43.286 43.583,43.286 43.583,43.741 43.932,43.603  " fill="#ffbf5e" data-fill-palette-color="accent"></polygon><polygon points="45.933,46.119 46.418,46.119 46.418,45.666 46.069,45.804  " fill="#ffbf5e" data-fill-palette-color="accent"></polygon><polygon points="46.069,45.804 46.194,45.514 45.796,45.913  " fill="#ffbf5e" data-fill-palette-color="accent"></polygon><polygon points="43.932,43.603 43.807,43.893 44.205,43.494  " fill="#ffbf5e" data-fill-palette-color="accent"></polygon><polygon points="43.583,45.635 43.583,46.119 44.038,46.119 43.899,45.771  " fill="#ffbf5e" data-fill-palette-color="accent"></polygon><polygon points="46.418,43.771 46.418,43.286 45.962,43.286 46.1,43.634  " fill="#ffbf5e" data-fill-palette-color="accent"></polygon><polygon points="43.899,45.771 44.19,45.896 43.791,45.497  " fill="#ffbf5e" data-fill-palette-color="accent"></polygon><polygon points="46.1,43.634 45.81,43.509 46.209,43.908  " fill="#ffbf5e" data-fill-palette-color="accent"></polygon><polygon points="46.418,45.29 46.418,44.996 46.194,45.514  " fill="#ffbf5e" data-fill-palette-color="accent"></polygon><polygon points="43.583,44.116 43.583,44.41 43.807,43.893  " fill="#ffbf5e" data-fill-palette-color="accent"></polygon><polygon points="45.587,43.286 45.293,43.286 45.81,43.509  " fill="#ffbf5e" data-fill-palette-color="accent"></polygon><polygon points="44.413,46.119 44.707,46.119 44.19,45.896  " fill="#ffbf5e" data-fill-palette-color="accent"></polygon><polygon points="45.589,46.119 45.796,45.913 45.274,46.119  " fill="#ffbf5e" data-fill-palette-color="accent"></polygon><polygon points="44.414,43.286 44.205,43.494 44.729,43.286  " fill="#ffbf5e" data-fill-palette-color="accent"></polygon><polygon points="43.583,45.29 43.791,45.497 43.583,44.976  " fill="#ffbf5e" data-fill-palette-color="accent"></polygon><polygon points="46.418,44.117 46.209,43.908 46.418,44.435  " fill="#ffbf5e" data-fill-palette-color="accent"></polygon></g></svg>
                                    </g>
                                </svg>
                            </g>
                            <g></g>
                        </svg>
                    </g>
                    <defs></defs>
                </svg>
                <rect width="106.87275621807264" height="247.2" fill="none" stroke="none"
                    visibility="hidden"></rect>
            </g>
        </svg>
    </g>
</svg>