<svg xmlns="http://www.w3.org/2000/svg" version="1.1" xmlns:xlink="http://www.w3.org/1999/xlink" xmlns:svgjs="http://svgjs.dev/svgjs" width="1500" height="1500" viewBox="0 0 1500 1500"><rect width="1500" height="1500" fill="#ffffff"></rect><g transform="matrix(0.6666666666666666,0,0,0.6666666666666666,249.39393939393938,435.9903225806451)"><svg viewBox="0 0 396 248" data-background-color="#ffffff" preserveAspectRatio="xMidYMid meet" height="939" width="1500" xmlns="http://www.w3.org/2000/svg" xmlns:xlink="http://www.w3.org/1999/xlink"><g id="tight-bounds" transform="matrix(1,0,0,1,0.2400000000000091,0.4000000000000057)"><svg viewBox="0 0 395.52 247.2" height="247.2" width="395.52"><g><svg></svg></g><g><svg viewBox="0 0 395.52 247.2" height="247.2" width="395.52"><g transform="matrix(1,0,0,1,96.30150319971024,47.215199999999996)"><svg viewBox="0 0 202.9169936005795 152.7696" height="152.7696" width="202.9169936005795"><g><svg viewBox="0 0 202.9169936005795 152.7696" height="152.7696" width="202.9169936005795"><g><svg viewBox="0 0 244.43135999999996 184.02441526488963" height="152.7696" width="202.9169936005795"><g transform="matrix(1,0,0,1,0,109.68689612236408)"><svg viewBox="0 0 244.43135999999996 74.33751914252555" height="74.33751914252555" width="244.43135999999996"><g id="textblocktransform"><svg viewBox="0 0 244.43135999999996 74.33751914252555" height="74.33751914252555" width="244.43135999999996" id="textblock"><g><svg viewBox="0 0 244.43135999999996 47.64428515798462" height="47.64428515798462" width="244.43135999999996"><g transform="matrix(1,0,0,1,0,0)"><svg width="244.43135999999996" viewBox="3.44 -38.57 228.7 44.58" height="47.64428515798462" data-palette-color="#b2d0c4"><path d="M11.69-9.47L11.69 0 3.44 0 3.44-38.57 11.69-38.57 11.69-13.26Q13.72-14.72 15.69-16.48 17.65-18.24 19.43-20.18 21.22-22.12 22.74-24.15 24.27-26.17 25.42-28.2L25.42-28.2 31.03-28.2Q29.32-25.32 26.98-22.45 24.63-19.58 21.88-16.97L21.88-16.97 31.13 0 22.02 0 15.45-11.77Q13.62-10.52 11.69-9.47L11.69-9.47ZM33.3-12.06L33.3-12.06Q33.3-13.99 33.63-16.06 33.96-18.14 34.58-20.21 35.2-22.29 36.08-24.32 36.96-26.34 38.06-28.2L38.06-28.2 44.09-28.2Q43.48-26.37 43-24.38 42.53-22.39 42.2-20.4 41.87-18.41 41.68-16.5 41.5-14.6 41.5-12.96L41.5-12.96Q41.5-12.01 41.59-10.93 41.67-9.84 41.89-8.75 42.11-7.67 42.51-6.67 42.92-5.66 43.55-4.9 44.19-4.13 45.1-3.67 46.02-3.22 47.26-3.22L47.26-3.22Q48.48-3.22 49.45-3.77 50.41-4.32 51.14-5.21 51.88-6.1 52.39-7.25 52.9-8.4 53.23-9.61 53.56-10.82 53.72-11.98 53.88-13.13 53.88-14.06L53.88-14.06 53.88-28.2 62.13-28.2 62.13 0 58.96 0 55.17-6.57Q54.47-4.93 53.45-3.6 52.44-2.27 51.14-1.32 49.85-0.37 48.28 0.15 46.7 0.66 44.87 0.66L44.87 0.66Q41.94 0.66 39.77-0.29 37.6-1.25 36.15-2.93 34.71-4.61 34.01-6.95 33.3-9.28 33.3-12.06ZM93.28-9.01L93.28-9.01Q93.28-7.15 92.74-5.71 92.21-4.27 91.28-3.21 90.35-2.15 89.08-1.43 87.81-0.71 86.36-0.27 84.91 0.17 83.32 0.37 81.73 0.56 80.17 0.56L80.17 0.56Q78.07 0.56 76.46 0.29 74.85 0.02 73.38-0.57 71.92-1.17 70.47-2.12 69.01-3.08 67.23-4.44L67.23-4.44 72.04-8.37Q72.7-7.13 73.79-6.12 74.87-5.1 76.04-4.37 77.22-3.64 78.32-3.25 79.41-2.86 80.1-2.86L80.1-2.86Q80.66-2.86 81.37-2.89 82.08-2.93 82.81-3.04 83.54-3.15 84.25-3.37 84.96-3.59 85.51-3.97 86.05-4.35 86.38-4.92 86.71-5.49 86.71-6.3L86.71-6.3Q86.71-7.13 86.29-7.75 85.86-8.37 85.18-8.84 84.49-9.3 83.61-9.62 82.73-9.94 81.84-10.18 80.95-10.42 80.12-10.61 79.29-10.79 78.68-10.96L78.68-10.96Q77.56-11.28 76.31-11.61 75.07-11.94 73.85-12.37 72.63-12.79 71.52-13.38 70.41-13.96 69.56-14.78 68.72-15.6 68.22-16.71 67.72-17.82 67.72-19.31L67.72-19.31Q67.72-22.05 68.81-23.89 69.89-25.73 71.67-26.84 73.46-27.95 75.73-28.42 78-28.88 80.34-28.88L80.34-28.88Q81.95-28.88 83.74-28.55 85.52-28.22 87.2-27.58 88.89-26.93 90.35-26 91.82-25.07 92.79-23.88L92.79-23.88 87.98-19.92Q87.45-21.39 86.58-22.44 85.71-23.49 84.7-24.16 83.69-24.83 82.62-25.15 81.56-25.46 80.66-25.46L80.66-25.46Q79.78-25.46 78.68-25.39 77.58-25.32 76.62-24.98 75.65-24.63 74.98-23.94 74.31-23.24 74.31-22.02L74.31-22.02Q74.31-21.14 74.71-20.52 75.12-19.9 75.78-19.45 76.44-18.99 77.28-18.69 78.12-18.38 79-18.15 79.88-17.92 80.71-17.75 81.54-17.58 82.2-17.38L82.2-17.38Q83.32-17.07 84.58-16.74 85.83-16.41 87.06-15.98 88.28-15.55 89.41-14.98 90.55-14.4 91.4-13.57 92.26-12.74 92.77-11.63 93.28-10.52 93.28-9.01ZM127.31-16.16L127.31-16.16Q127.31-13.31 126.62-10.21 125.92-7.1 124.68-4.13 123.43-1.15 121.7 1.48 119.96 4.1 117.89 6.01L117.89 6.01 114.79 4.32Q115.45 3.1 116.03 1.59 116.62 0.07 117.09-1.62 117.57-3.32 117.95-5.13 118.33-6.93 118.58-8.7 118.84-10.47 118.97-12.15 119.11-13.82 119.11-15.26L119.11-15.26Q119.11-16.21 119.04-17.3 118.96-18.38 118.73-19.47 118.5-20.56 118.11-21.56 117.72-22.56 117.07-23.32 116.42-24.07 115.51-24.54 114.59-25 113.35-25L113.35-25Q112.13-25 111.17-24.45 110.22-23.9 109.49-23.01 108.76-22.12 108.23-20.97 107.71-19.82 107.38-18.62 107.05-17.41 106.9-16.24 106.76-15.06 106.76-14.14L106.76-14.14 106.76 0 98.48 0 98.48-38.57 106.73-38.57 106.73-24.05Q108.32-26.37 110.62-27.62 112.93-28.88 115.74-28.88L115.74-28.88Q118.67-28.88 120.84-27.93 123.01-26.98 124.46-25.28 125.9-23.58 126.6-21.25 127.31-18.92 127.31-16.16ZM161.15-28.2L161.15 0 152.9 0 152.9-3.37Q151.43-1.37 149.37-0.4 147.3 0.56 144.84 0.56L144.84 0.56Q141.62 0.56 139.08-0.59 136.54-1.73 134.78-3.72 133.02-5.71 132.09-8.4 131.17-11.08 131.17-14.16L131.17-14.16Q131.17-17.24 132.09-19.92 133.02-22.61 134.78-24.6 136.54-26.59 139.08-27.73 141.62-28.88 144.84-28.88L144.84-28.88Q146.47-28.88 147.95-28.39 149.43-27.91 150.66-27.01 151.89-26.12 152.83-24.87 153.77-23.61 154.31-22.07L154.31-22.07 157.97-28.2 161.15-28.2ZM152.85-14.16L152.85-14.16Q152.85-15.26 152.74-16.48 152.63-17.7 152.36-18.9 152.09-20.09 151.61-21.18 151.14-22.27 150.39-23.11 149.65-23.95 148.6-24.44 147.55-24.93 146.16-24.93L146.16-24.93Q144.77-24.93 143.74-24.43 142.71-23.93 141.98-23.08 141.25-22.24 140.77-21.14 140.3-20.04 140.03-18.85 139.76-17.65 139.65-16.44 139.54-15.23 139.54-14.16L139.54-14.16Q139.54-13.09 139.65-11.87 139.76-10.64 140.03-9.45 140.3-8.25 140.77-7.15 141.25-6.05 141.98-5.21 142.71-4.37 143.74-3.87 144.77-3.37 146.16-3.37L146.16-3.37Q147.43-3.37 148.42-3.89 149.4-4.42 150.15-5.3 150.89-6.18 151.41-7.3 151.92-8.42 152.24-9.62 152.55-10.82 152.7-12 152.85-13.18 152.85-14.16ZM196.42-28.2L196.42 0 188.17 0 188.17-3.37Q186.71-1.37 184.64-0.4 182.58 0.56 180.11 0.56L180.11 0.56Q176.89 0.56 174.35-0.59 171.81-1.73 170.06-3.72 168.3-5.71 167.37-8.4 166.44-11.08 166.44-14.16L166.44-14.16Q166.44-17.24 167.37-19.92 168.3-22.61 170.06-24.6 171.81-26.59 174.35-27.73 176.89-28.88 180.11-28.88L180.11-28.88Q181.75-28.88 183.23-28.39 184.7-27.91 185.94-27.01 187.17-26.12 188.11-24.87 189.05-23.61 189.59-22.07L189.59-22.07 193.25-28.2 196.42-28.2ZM188.12-14.16L188.12-14.16Q188.12-15.26 188.01-16.48 187.9-17.7 187.63-18.9 187.37-20.09 186.89-21.18 186.41-22.27 185.67-23.11 184.92-23.95 183.87-24.44 182.82-24.93 181.43-24.93L181.43-24.93Q180.04-24.93 179.02-24.43 177.99-23.93 177.26-23.08 176.53-22.24 176.05-21.14 175.57-20.04 175.3-18.85 175.04-17.65 174.93-16.44 174.82-15.23 174.82-14.16L174.82-14.16Q174.82-13.09 174.93-11.87 175.04-10.64 175.3-9.45 175.57-8.25 176.05-7.15 176.53-6.05 177.26-5.21 177.99-4.37 179.02-3.87 180.04-3.37 181.43-3.37L181.43-3.37Q182.7-3.37 183.69-3.89 184.68-4.42 185.42-5.3 186.17-6.18 186.68-7.3 187.19-8.42 187.51-9.62 187.83-10.82 187.98-12 188.12-13.18 188.12-14.16ZM232.14-16.16L232.14-16.16Q232.14-13.31 231.44-10.21 230.75-7.1 229.5-4.13 228.26-1.15 226.52 1.48 224.79 4.1 222.71 6.01L222.71 6.01 219.61 4.32Q220.27 3.1 220.86 1.59 221.44 0.07 221.92-1.62 222.4-3.32 222.78-5.13 223.15-6.93 223.41-8.7 223.67-10.47 223.8-12.15 223.94-13.82 223.94-15.26L223.94-15.26Q223.94-16.21 223.86-17.3 223.79-18.38 223.56-19.47 223.32-20.56 222.93-21.56 222.54-22.56 221.9-23.32 221.25-24.07 220.33-24.54 219.42-25 218.17-25L218.17-25Q216.95-25 216-24.45 215.05-23.9 214.32-23.01 213.58-22.12 213.06-20.97 212.53-19.82 212.2-18.62 211.87-17.41 211.73-16.24 211.58-15.06 211.58-14.14L211.58-14.14 211.58 0 203.31 0 203.31-28.2 206.48-28.2 210.26-21.63Q210.95-23.27 211.97-24.61 213-25.95 214.29-26.9 215.59-27.86 217.16-28.37 218.74-28.88 220.57-28.88L220.57-28.88Q223.5-28.88 225.67-27.93 227.84-26.98 229.28-25.28 230.72-23.58 231.43-21.25 232.14-18.92 232.14-16.16Z" opacity="1" transform="matrix(1,0,0,1,0,0)" fill="#b2d0c4" class="wordmark-text-0" data-fill-palette-color="primary" id="text-0"></path></svg></g></svg></g><g transform="matrix(1,0,0,1,0,54.59672982537837)"><svg viewBox="0 0 244.43135999999996 19.740789317147186" height="19.740789317147186" width="244.43135999999996"><g transform="matrix(1,0,0,1,0,0)"><svg width="244.43135999999996" viewBox="1.45 -36.5 593.04 47.9" height="19.740789317147186" data-palette-color="#b2d0c4"><path d="M5.2 8.1L5.2-18.7Q5.2-20.7 4.38-21.43 3.55-22.15 1.45-22.25L1.45-22.25 1.6-23.85Q2.7-24.05 8.2-25.65L8.2-25.65 9.15-25.15 9.6-21.9Q11.8-25.6 16.45-25.6L16.45-25.6Q26.05-25.6 26.05-13.15L26.05-13.15Q26.05-6.55 23-3.08 19.95 0.4 14.2 0.4L14.2 0.4Q12.1 0.4 9.8-0.45L9.8-0.45 9.8 8.1Q11.15 9.1 13.55 9.55L13.55 9.55 13.35 11.4 1.45 11.4 1.65 9.45Q3.8 9.1 5.2 8.1L5.2 8.1ZM9.8-13.1L9.8-13.1 9.8-2.95Q11.6-1.9 14.6-1.9 17.6-1.9 19.45-4.85 21.3-7.8 21.3-13.08 21.3-18.35 20-20.83 18.7-23.3 15.95-23.3L15.95-23.3Q9.8-23.3 9.8-13.1ZM37.45 0.4L37.45 0.4Q34.25 0.4 32.47-1.23 30.7-2.85 30.7-6.08 30.7-9.3 33.17-11.3 35.65-13.3 40.4-13.65L40.4-13.65 44.65-13.95 44.65-18.35Q44.65-21.05 43.57-22.28 42.5-23.5 40.15-23.5L40.15-23.5Q35.9-23.5 35.9-21.05L35.9-21.05Q35.9-19.7 37.55-19.05L37.55-19.05Q37.55-16.5 34.45-16.5L34.45-16.5Q33.05-16.5 32.2-17.35 31.35-18.2 31.35-19.6L31.35-19.6Q31.35-22.4 33.72-24.03 36.1-25.65 40.27-25.65 44.45-25.65 46.85-23.73 49.25-21.8 49.25-18.35L49.25-18.35 49.25-3.3Q50.5-2.35 53-1.85L53-1.85 52.8 0 45.35 0 44.8-2.4Q41.85 0.4 37.45 0.4ZM35.45-6.25L35.45-6.25Q35.45-1.85 38.85-1.85L38.85-1.85Q41.55-1.85 44.65-4.95L44.65-4.95 44.65-11.75 40.6-11.4Q38.2-11.2 36.82-9.8 35.45-8.4 35.45-6.25ZM60.7-2.6Q62.55-2.05 64.7-2.05 66.84-2.05 68.2-3.28 69.55-4.5 69.55-6.15 69.55-7.8 68.57-8.83 67.59-9.85 66.15-10.33 64.7-10.8 62.97-11.45 61.25-12.1 59.8-12.8 58.35-13.5 57.37-15.08 56.4-16.65 56.4-18.9L56.4-18.9Q56.4-21.95 58.82-23.78 61.25-25.6 64.97-25.6 68.7-25.6 71.09-24.08 73.5-22.55 73.5-20.35L73.5-20.35Q73.5-17.55 71-17.55L71-17.55Q69.09-17.55 68.15-19L68.15-19Q69-19.7 69-20.88 69-22.05 67.82-22.75 66.65-23.45 64.77-23.45 62.9-23.45 61.67-22.48 60.45-21.5 60.45-19.75 60.45-18 61.82-16.85 63.2-15.7 65.15-15.08 67.09-14.45 69.07-13.73 71.05-13 72.42-11.4 73.8-9.8 73.8-7.35L73.8-7.35Q73.8-3.7 71.3-1.7 68.8 0.3 64.25 0.3L64.25 0.3Q62.4 0.3 59.97-0.33 57.55-0.95 56.35-1.75L56.35-1.75 56.35-8.4 59.25-8.75Q59.6-4.65 60.7-2.6L60.7-2.6ZM83.39-2.6Q85.24-2.05 87.39-2.05 89.54-2.05 90.89-3.28 92.24-4.5 92.24-6.15 92.24-7.8 91.27-8.83 90.29-9.85 88.84-10.33 87.39-10.8 85.67-11.45 83.94-12.1 82.49-12.8 81.04-13.5 80.07-15.08 79.09-16.65 79.09-18.9L79.09-18.9Q79.09-21.95 81.52-23.78 83.94-25.6 87.67-25.6 91.39-25.6 93.79-24.08 96.19-22.55 96.19-20.35L96.19-20.35Q96.19-17.55 93.69-17.55L93.69-17.55Q91.79-17.55 90.84-19L90.84-19Q91.69-19.7 91.69-20.88 91.69-22.05 90.52-22.75 89.34-23.45 87.47-23.45 85.59-23.45 84.37-22.48 83.14-21.5 83.14-19.75 83.14-18 84.52-16.85 85.89-15.7 87.84-15.08 89.79-14.45 91.77-13.73 93.74-13 95.12-11.4 96.49-9.8 96.49-7.35L96.49-7.35Q96.49-3.7 93.99-1.7 91.49 0.3 86.94 0.3L86.94 0.3Q85.09 0.3 82.67-0.33 80.24-0.95 79.04-1.75L79.04-1.75 79.04-8.4 81.94-8.75Q82.29-4.65 83.39-2.6L83.39-2.6ZM104.49-3.3L104.49-18.8Q104.49-20.8 103.67-21.53 102.84-22.25 100.74-22.35L100.74-22.35 100.89-23.95Q102.94-24.3 108.04-25.8L108.04-25.8 109.09-25.25 109.09-3.3Q110.44-2.3 112.84-1.85L112.84-1.85 112.64 0 100.74 0 100.94-1.95Q103.09-2.3 104.49-3.3L104.49-3.3ZM109.34-32.77Q109.34-29.65 106.52-29.65 103.69-29.65 103.69-32.77 103.69-35.9 106.52-35.9 109.34-35.9 109.34-32.77ZM120.69-12.65Q120.69-7.05 122.19-4.58 123.69-2.1 127.06-2.1 130.44-2.1 131.94-4.58 133.44-7.05 133.44-12.63 133.44-18.2 131.94-20.68 130.44-23.15 127.04-23.15 123.64-23.15 122.16-20.7 120.69-18.25 120.69-12.65ZM135.36-2.93Q132.54 0.4 127.04 0.4 121.54 0.4 118.71-2.93 115.89-6.25 115.89-12.63 115.89-19 118.71-22.33 121.54-25.65 127.04-25.65 132.54-25.65 135.36-22.33 138.19-19 138.19-12.63 138.19-6.25 135.36-2.93ZM145.64-3.3L145.64-18.7Q145.64-20.7 144.81-21.43 143.99-22.15 141.89-22.25L141.89-22.25 142.04-23.85Q143.14-24.05 148.64-25.65L148.64-25.65 149.59-25.15 150.09-21.8Q152.89-25.65 156.99-25.65 161.09-25.65 163.29-23.68 165.49-21.7 165.49-18.2L165.49-18.2 165.49-3.3Q166.74-2.35 169.24-1.85L169.24-1.85 169.04 0 157.19 0 157.34-1.85Q159.34-2.15 160.89-3.3L160.89-3.3 160.89-17.7Q160.89-23.05 156.29-23.05L156.29-23.05Q154.44-23.05 152.74-21.8 151.04-20.55 150.24-18.55L150.24-18.55 150.24-3.3Q151.59-2.3 153.99-1.85L153.99-1.85 153.79 0 141.89 0 142.09-1.95Q144.24-2.3 145.64-3.3L145.64-3.3ZM179.28 0.4L179.28 0.4Q176.08 0.4 174.31-1.23 172.53-2.85 172.53-6.08 172.53-9.3 175.01-11.3 177.48-13.3 182.23-13.65L182.23-13.65 186.48-13.95 186.48-18.35Q186.48-21.05 185.41-22.28 184.33-23.5 181.98-23.5L181.98-23.5Q177.73-23.5 177.73-21.05L177.73-21.05Q177.73-19.7 179.38-19.05L179.38-19.05Q179.38-16.5 176.28-16.5L176.28-16.5Q174.88-16.5 174.03-17.35 173.18-18.2 173.18-19.6L173.18-19.6Q173.18-22.4 175.56-24.03 177.93-25.65 182.11-25.65 186.28-25.65 188.68-23.73 191.08-21.8 191.08-18.35L191.08-18.35 191.08-3.3Q192.33-2.35 194.83-1.85L194.83-1.85 194.63 0 187.18 0 186.63-2.4Q183.68 0.4 179.28 0.4ZM177.28-6.25L177.28-6.25Q177.28-1.85 180.68-1.85L180.68-1.85Q183.38-1.85 186.48-4.95L186.48-4.95 186.48-11.75 182.43-11.4Q180.03-11.2 178.66-9.8 177.28-8.4 177.28-6.25ZM200.73-6.25L200.73-6.25 200.73-22.5 196.33-22.5 196.33-24Q201.63-25.8 203.23-30.55L203.23-30.55 205.38-30.55 205.38-25.3 211.48-25.3 211.48-22.5 205.33-22.5 205.33-5.85Q205.33-3.85 205.78-3 206.23-2.15 207.83-2.15 209.43-2.15 211.18-3.2L211.18-3.2 212.23-1.6Q209.73 0.4 206.43 0.4 203.13 0.4 201.93-1.13 200.73-2.65 200.73-6.25ZM234.73-13.05L220.23-13.05 220.23-12.25Q220.23-6.05 221.88-3.9L221.88-3.9Q223.43-1.9 226.95-1.9 230.48-1.9 232.98-4.85L232.98-4.85 234.68-3.15Q231.63 0.4 226.48 0.4L226.48 0.4Q220.43 0.4 217.85-2.95 215.28-6.3 215.28-12.55 215.28-18.8 218.08-22.23 220.88-25.65 226.18-25.65 231.48-25.65 233.58-22.85 235.68-20.05 235.83-14.5L235.83-14.5 234.73-13.05ZM226.08-23.45L226.08-23.45Q220.38-23.45 220.23-15.05L220.23-15.05 230.98-15.45Q230.98-19.65 229.93-21.55 228.88-23.45 226.08-23.45ZM255.72-3.3L255.72-18.7Q255.72-20.7 254.9-21.43 254.07-22.15 251.97-22.25L251.97-22.25 252.12-23.85Q253.22-24.05 258.72-25.65L258.72-25.65 259.67-25.15 260.22-21.4Q263.07-25.65 266.67-25.65L266.67-25.65Q268.62-25.65 270.05-24.5 271.47-23.35 271.47-21.63 271.47-19.9 270.7-18.9 269.92-17.9 268.8-17.9 267.67-17.9 266.87-18.35 266.07-18.8 265.87-19.55L265.87-19.55Q266.42-20.1 266.42-21.05L266.42-21.05Q266.42-22.7 264.87-22.7 263.32-22.7 261.82-20.4 260.32-18.1 260.32-15.55L260.32-15.55 260.32-3.3Q261.82-2.3 264.57-1.85L264.57-1.85 264.37 0 251.97 0 252.17-1.95Q254.32-2.3 255.72-3.3L255.72-3.3ZM293.67-13.05L279.17-13.05 279.17-12.25Q279.17-6.05 280.82-3.9L280.82-3.9Q282.37-1.9 285.9-1.9 289.42-1.9 291.92-4.85L291.92-4.85 293.62-3.15Q290.57 0.4 285.42 0.4L285.42 0.4Q279.37 0.4 276.8-2.95 274.22-6.3 274.22-12.55 274.22-18.8 277.02-22.23 279.82-25.65 285.12-25.65 290.42-25.65 292.52-22.85 294.62-20.05 294.77-14.5L294.77-14.5 293.67-13.05ZM285.02-23.45L285.02-23.45Q279.32-23.45 279.17-15.05L279.17-15.05 289.92-15.45Q289.92-19.65 288.87-21.55 287.82-23.45 285.02-23.45ZM305.77 0.4L305.77 0.4Q302.57 0.4 300.79-1.23 299.02-2.85 299.02-6.08 299.02-9.3 301.49-11.3 303.97-13.3 308.72-13.65L308.72-13.65 312.97-13.95 312.97-18.35Q312.97-21.05 311.89-22.28 310.82-23.5 308.47-23.5L308.47-23.5Q304.22-23.5 304.22-21.05L304.22-21.05Q304.22-19.7 305.87-19.05L305.87-19.05Q305.87-16.5 302.77-16.5L302.77-16.5Q301.37-16.5 300.52-17.35 299.67-18.2 299.67-19.6L299.67-19.6Q299.67-22.4 302.04-24.03 304.42-25.65 308.59-25.65 312.77-25.65 315.17-23.73 317.57-21.8 317.57-18.35L317.57-18.35 317.57-3.3Q318.82-2.35 321.32-1.85L321.32-1.85 321.12 0 313.67 0 313.12-2.4Q310.17 0.4 305.77 0.4ZM303.77-6.25L303.77-6.25Q303.77-1.85 307.17-1.85L307.17-1.85Q309.87-1.85 312.97-4.95L312.97-4.95 312.97-11.75 308.92-11.4Q306.52-11.2 305.14-9.8 303.77-8.4 303.77-6.25ZM335.17 0.25L335.17 0.25Q329.27 0.25 326.57-2.83 323.87-5.9 323.87-12.55L323.87-12.55Q323.87-25.5 335.42-25.5L335.42-25.5Q339.12-25.5 341.42-23.93 343.72-22.35 343.72-19.8L343.72-19.8Q343.72-18.5 342.87-17.55 342.02-16.6 340.94-16.6 339.87-16.6 339.07-17.15 338.27-17.7 338.07-18.55L338.07-18.55Q338.77-19.65 338.77-20.75 338.77-21.85 337.84-22.7 336.92-23.55 335.42-23.55L335.42-23.55Q332.02-23.55 330.44-20.93 328.87-18.3 328.87-12.58 328.87-6.85 330.34-4.38 331.82-1.9 335.17-1.9L335.17-1.9Q339.62-1.9 341.37-6.65L341.37-6.65 343.57-5.9Q342.67-3.05 340.42-1.4 338.17 0.25 335.17 0.25ZM350.66-6.25L350.66-6.25 350.66-22.5 346.26-22.5 346.26-24Q351.56-25.8 353.16-30.55L353.16-30.55 355.31-30.55 355.31-25.3 361.41-25.3 361.41-22.5 355.26-22.5 355.26-5.85Q355.26-3.85 355.71-3 356.16-2.15 357.76-2.15 359.36-2.15 361.11-3.2L361.11-3.2 362.16-1.6Q359.66 0.4 356.36 0.4 353.06 0.4 351.86-1.13 350.66-2.65 350.66-6.25ZM387.41 0.35L387.41 0.35Q377.81 0.35 377.81-12.1L377.81-12.1Q377.81-18.7 380.86-22.18 383.91-25.65 389.66-25.65L389.66-25.65Q391.76-25.65 394.06-24.75L394.06-24.75 394.06-29.5Q394.06-31.5 393.23-32.23 392.41-32.95 390.31-33.05L390.31-33.05 390.46-34.65Q392.51-35 397.61-36.5L397.61-36.5 398.66-35.95 398.66-3.3Q400.01-2.3 402.41-1.85L402.41-1.85 402.21 0 394.46 0 394.06-3.1Q391.86 0.35 387.41 0.35ZM394.06-12.65L394.06-12.65 394.06-22.25Q392.16-23.35 389.21-23.35 386.26-23.35 384.41-20.4 382.56-17.45 382.56-12.18 382.56-6.9 383.86-4.42 385.16-1.95 387.91-1.95L387.91-1.95Q394.06-1.95 394.06-12.65ZM425.06-13.05L410.56-13.05 410.56-12.25Q410.56-6.05 412.21-3.9L412.21-3.9Q413.76-1.9 417.28-1.9 420.81-1.9 423.31-4.85L423.31-4.85 425.01-3.15Q421.96 0.4 416.81 0.4L416.81 0.4Q410.76 0.4 408.18-2.95 405.61-6.3 405.61-12.55 405.61-18.8 408.41-22.23 411.21-25.65 416.51-25.65 421.81-25.65 423.91-22.85 426.01-20.05 426.16-14.5L426.16-14.5 425.06-13.05ZM416.41-23.45L416.41-23.45Q410.71-23.45 410.56-15.05L410.56-15.05 421.31-15.45Q421.31-19.65 420.26-21.55 419.21-23.45 416.41-23.45ZM443.05 0L439.45 0 431.6-21.45Q431-23.1 427.75-23.7L427.75-23.7 427.9-25.3 439.9-25.3 439.75-23.7Q437.5-23.4 436.4-22.5L436.4-22.5 442.1-5.2 447.8-22.5Q446.65-23.35 444.6-23.7L444.6-23.7 444.75-25.3 455-25.3 454.85-23.7Q451.55-23.1 451.2-22.1L451.2-22.1 443.05 0ZM476.5-13.05L462-13.05 462-12.25Q462-6.05 463.65-3.9L463.65-3.9Q465.2-1.9 468.73-1.9 472.25-1.9 474.75-4.85L474.75-4.85 476.45-3.15Q473.4 0.4 468.25 0.4L468.25 0.4Q462.2 0.4 459.63-2.95 457.05-6.3 457.05-12.55 457.05-18.8 459.85-22.23 462.65-25.65 467.95-25.65 473.25-25.65 475.35-22.85 477.45-20.05 477.6-14.5L477.6-14.5 476.5-13.05ZM467.85-23.45L467.85-23.45Q462.15-23.45 462-15.05L462-15.05 472.75-15.45Q472.75-19.65 471.7-21.55 470.65-23.45 467.85-23.45ZM484.65-3.3L484.65-29.5Q484.65-31.5 483.82-32.23 483-32.95 480.9-33.05L480.9-33.05 481.05-34.65Q483.1-35 488.2-36.5L488.2-36.5 489.25-35.95 489.25-3.3Q490.6-2.3 493-1.85L493-1.85 492.8 0 480.9 0 481.1-1.95Q483.25-2.3 484.65-3.3L484.65-3.3ZM501.2-12.65Q501.2-7.05 502.7-4.58 504.2-2.1 507.57-2.1 510.95-2.1 512.45-4.58 513.95-7.05 513.95-12.63 513.95-18.2 512.45-20.68 510.95-23.15 507.55-23.15 504.15-23.15 502.67-20.7 501.2-18.25 501.2-12.65ZM515.87-2.93Q513.05 0.4 507.55 0.4 502.05 0.4 499.22-2.93 496.4-6.25 496.4-12.63 496.4-19 499.22-22.33 502.05-25.65 507.55-25.65 513.05-25.65 515.87-22.33 518.7-19 518.7-12.63 518.7-6.25 515.87-2.93ZM525.94 8.1L525.94-18.7Q525.94-20.7 525.12-21.43 524.29-22.15 522.19-22.25L522.19-22.25 522.34-23.85Q523.44-24.05 528.94-25.65L528.94-25.65 529.89-25.15 530.34-21.9Q532.54-25.6 537.19-25.6L537.19-25.6Q546.79-25.6 546.79-13.15L546.79-13.15Q546.79-6.55 543.74-3.08 540.69 0.4 534.94 0.4L534.94 0.4Q532.84 0.4 530.54-0.45L530.54-0.45 530.54 8.1Q531.89 9.1 534.29 9.55L534.29 9.55 534.09 11.4 522.19 11.4 522.39 9.45Q524.54 9.1 525.94 8.1L525.94 8.1ZM530.54-13.1L530.54-13.1 530.54-2.95Q532.34-1.9 535.34-1.9 538.34-1.9 540.19-4.85 542.04-7.8 542.04-13.08 542.04-18.35 540.74-20.83 539.44-23.3 536.69-23.3L536.69-23.3Q530.54-23.3 530.54-13.1ZM570.39-13.05L555.89-13.05 555.89-12.25Q555.89-6.05 557.54-3.9L557.54-3.9Q559.09-1.9 562.62-1.9 566.14-1.9 568.64-4.85L568.64-4.85 570.34-3.15Q567.29 0.4 562.14 0.4L562.14 0.4Q556.09 0.4 553.51-2.95 550.94-6.3 550.94-12.55 550.94-18.8 553.74-22.23 556.54-25.65 561.84-25.65 567.14-25.65 569.24-22.85 571.34-20.05 571.49-14.5L571.49-14.5 570.39-13.05ZM561.74-23.45L561.74-23.45Q556.04-23.45 555.89-15.05L555.89-15.05 566.64-15.45Q566.64-19.65 565.59-21.55 564.54-23.45 561.74-23.45ZM578.74-3.3L578.74-18.7Q578.74-20.7 577.91-21.43 577.09-22.15 574.99-22.25L574.99-22.25 575.14-23.85Q576.24-24.05 581.74-25.65L581.74-25.65 582.69-25.15 583.24-21.4Q586.09-25.65 589.69-25.65L589.69-25.65Q591.64-25.65 593.06-24.5 594.49-23.35 594.49-21.63 594.49-19.9 593.71-18.9 592.94-17.9 591.81-17.9 590.69-17.9 589.89-18.35 589.09-18.8 588.89-19.55L588.89-19.55Q589.44-20.1 589.44-21.05L589.44-21.05Q589.44-22.7 587.89-22.7 586.34-22.7 584.84-20.4 583.34-18.1 583.34-15.55L583.34-15.55 583.34-3.3Q584.84-2.3 587.59-1.85L587.59-1.85 587.39 0 574.99 0 575.19-1.95Q577.34-2.3 578.74-3.3L578.74-3.3Z" opacity="1" transform="matrix(1,0,0,1,0,0)" fill="#b2d0c4" class="slogan-text-1" data-fill-palette-color="secondary" id="text-1"></path></svg></g></svg></g></svg></g></svg></g><g transform="matrix(1,0,0,1,70.84845427251481,0)"><svg viewBox="0 0 102.73445145497033 102.73445145497033" height="102.73445145497033" width="102.73445145497033"><g><svg xmlns="http://www.w3.org/2000/svg" data-name="Layer 1" viewBox="0 0 128 128" x="0" y="0" height="102.73445145497033" width="102.73445145497033" class="icon-icon-0" data-fill-palette-color="accent" id="icon-0"><path d="M18.136 82.998C13.594 94.39 13.457 103.966 18.746 109.255 21.455 111.965 25.288 113.253 29.918 113.253A41.8 41.8 0 0 0 45.003 109.866C49.847 121.133 56.521 128 64 128S78.154 121.133 82.997 109.865A41.8 41.8 0 0 0 98.081 113.252C102.71 113.252 106.545 111.965 109.255 109.255 114.543 103.967 114.406 94.39 109.864 82.998 121.132 78.154 128 71.479 128 64S121.132 49.846 109.864 45.002C114.406 33.61 114.543 24.034 109.254 18.745 103.967 13.457 94.39 13.593 82.999 18.135 78.154 6.868 71.478 0 64 0 56.52 0 49.846 6.868 45.002 18.136 33.61 13.593 24.034 13.456 18.745 18.746 13.457 24.033 13.594 33.61 18.136 45.001 6.868 49.846 0 56.521 0 64S6.868 78.154 18.136 82.998M21.573 106.427C17.453 102.306 17.878 94.237 21.847 84.464A101 101 0 0 0 39.057 88.943 101 101 0 0 0 43.535 106.153C33.763 110.121 25.695 110.546 21.573 106.427M37.066 68.364Q35.315 66.18 33.71 64 35.314 61.822 37.066 59.636C37.027 61.078 37 62.53 37 64S37.027 66.922 37.066 68.364M31.25 60.55A99 99 0 0 1 23.474 47.214 99 99 0 0 1 38.402 43.282Q37.746 47.97 37.39 52.978 34.103 56.764 31.25 60.55M37.39 75.022Q37.742 80.023 38.402 84.718A99 99 0 0 1 23.474 80.786 99 99 0 0 1 31.25 67.45Q34.1 71.228 37.39 75.022M47.736 47.736Q51.118 44.354 54.592 41.3 59.203 41.007 64 41 68.789 41 73.408 41.3 76.871 44.35 80.264 47.736 83.648 51.121 86.7 54.596 86.993 59.207 87 64 87 68.786 86.7 73.403 83.649 76.87 80.265 80.263 76.879 83.649 73.404 86.702 68.793 86.993 64 87 59.214 87 54.597 86.7 51.13 83.649 47.737 80.265 44.351 76.879 41.298 73.404 41.007 68.793 41 64 41 59.214 41.3 54.597 44.351 51.13 47.735 47.737M41.87 48.041Q42.175 45.258 42.582 42.58 45.256 42.177 48.04 41.87C46.993 42.862 45.948 43.87 44.908 44.91S42.862 46.992 41.87 48.04M59.625 37.067Q61.815 35.31 64 33.707 66.184 35.314 68.375 37.066C66.93 37.027 65.474 37 64 37S61.07 37.027 59.625 37.067M79.959 41.869Q82.742 42.175 85.419 42.582 85.823 45.256 86.13 48.04C85.139 46.993 84.13 45.948 83.09 44.908S81.008 42.862 79.96 41.87M86.131 79.96Q85.825 82.742 85.418 85.42 82.747 85.823 79.965 86.13 81.535 84.644 83.092 83.092A159 159 0 0 0 86.13 79.959M68.364 90.934Q66.18 92.685 64 94.29 61.82 92.686 59.635 90.934C61.079 90.973 62.53 91 64 91S66.922 90.973 68.364 90.934M48.034 86.13Q45.256 85.824 42.583 85.418 42.176 82.744 41.869 79.96A165 165 0 0 0 44.91 83.092Q46.464 84.648 48.034 86.13M43.283 89.598Q47.967 90.253 52.972 90.61 56.76 93.897 60.547 96.753A99 99 0 0 1 47.214 104.526 99 99 0 0 1 43.282 89.598M64 124C58.173 124 52.77 117.996 48.666 108.282A101 101 0 0 0 64 99.272 101 101 0 0 0 79.335 108.281C75.23 117.995 69.827 124 64 124M80.786 104.527A99 99 0 0 1 67.454 96.753Q71.233 93.903 75.028 90.61 80.026 90.257 84.718 89.598A99 99 0 0 1 80.786 104.527M106.426 106.427C102.307 110.548 94.238 110.123 84.465 106.154A101 101 0 0 0 88.943 88.943 101 101 0 0 0 106.153 84.464C110.124 94.237 110.548 102.306 106.428 106.427M90.935 59.636Q92.685 61.82 94.29 64 92.686 66.179 90.934 68.364C90.973 66.922 91 65.47 91 64S90.973 61.078 90.934 59.636M90.61 52.978Q90.258 47.977 89.598 43.282A99 99 0 0 1 104.526 47.214 99 99 0 0 1 96.75 60.55Q93.9 56.772 90.61 52.978M90.61 75.022Q93.897 71.236 96.75 67.45A99 99 0 0 1 104.526 80.786 99 99 0 0 1 89.598 84.718Q90.254 80.03 90.61 75.022M124 64C124 69.828 117.994 75.232 108.277 79.336A100.7 100.7 0 0 0 99.274 64 100.7 100.7 0 0 0 108.277 48.664C117.994 52.768 124 58.172 124 64M98.044 18.67C101.578 18.67 104.454 19.602 106.427 21.573 110.547 25.694 110.122 33.763 106.154 43.536A101 101 0 0 0 88.943 39.057 101 101 0 0 0 84.464 21.847 37.5 37.5 0 0 1 98.044 18.67M84.718 38.402Q80.03 37.746 75.022 37.39 71.238 34.104 67.452 31.252A99 99 0 0 1 80.787 23.473 99 99 0 0 1 84.718 38.403M64 4C69.828 4 75.232 10.006 79.336 19.722A101 101 0 0 0 63.999 28.726 101 101 0 0 0 48.664 19.723C52.768 10.006 58.172 4 64 4M47.214 23.474A99 99 0 0 1 60.547 31.252Q56.77 34.102 52.977 37.39 47.978 37.742 43.283 38.402A99 99 0 0 1 47.214 23.474M21.574 21.574C23.545 19.6 26.42 18.67 29.955 18.67A37.5 37.5 0 0 1 43.536 21.846 101 101 0 0 0 39.057 39.057 101 101 0 0 0 21.847 43.536C17.877 33.763 17.453 25.694 21.572 21.573M19.722 48.663A100.7 100.7 0 0 0 28.726 64 100.7 100.7 0 0 0 19.723 79.336C10.006 75.232 4 69.828 4 64S10.006 52.768 19.723 48.664" fill="#c6bba8" data-fill-palette-color="accent"></path><path d="M64 81A17 17 0 1 0 47 64 17.02 17.02 0 0 0 64 81M64 51A13 13 0 1 1 51 64 13.015 13.015 0 0 1 64 51" fill="#c6bba8" data-fill-palette-color="accent"></path><path d="M64 72A8 8 0 1 0 56 64 8.01 8.01 0 0 0 64 72M64 60A4 4 0 1 1 60 64 4.004 4.004 0 0 1 64 60" fill="#c6bba8" data-fill-palette-color="accent"></path></svg></g></svg></g><g></g></svg></g></svg></g></svg></g><g><path d="M138.227 41.444A101.458 101.458 0 0 1 257.293 41.444L255.088 41.444A99.254 99.254 0 0 0 140.432 41.444L138.227 41.444M138.227 205.756A101.458 101.458 0 0 0 257.293 205.756L255.088 205.756A99.254 99.254 0 0 1 140.432 205.756L138.227 205.756" fill="#b2d0c4" stroke="transparent" data-fill-palette-color="tertiary"></path></g></svg></g><defs></defs></svg><rect width="395.52" height="247.2" fill="none" stroke="none" visibility="hidden"></rect></g></svg></g></svg>